<svg height="1024" node-id="1" sillyvg="true" template-height="1024" template-width="1024" version="1.1" viewBox="0 0 1024 1024" width="1024" xmlns="http://www.w3.org/2000/svg" xmlns:xlink="http://www.w3.org/1999/xlink"><defs node-id="29"></defs><path d="M 185.60 595.20 L 806.40 595.20 L 806.40 598.40 L 185.60 598.40 Z" fill="#000000" fill-rule="evenodd" id="矩形" node-id="5" stroke="none" target-height="3.2000122" target-width="620.80005" target-x="185.6" target-y="595.2"/><g node-id="31"><path d="M 473.60 236.80 L 748.80 236.80 L 748.80 595.20 L 473.60 595.20 Z" fill="#ebece9" fill-rule="evenodd" group-id="1" id="矩形" node-id="7" stroke="none" target-height="358.40002" target-width="275.19998" target-x="473.6" target-y="236.8"/><path d="M 508.80 268.80 L 720.00 268.80 L 720.00 288.00 L 508.80 288.00 Z" fill="#d1d4d3" fill-rule="evenodd" group-id="1" id="矩形" node-id="8" stroke="none" target-height="19.200012" target-width="211.20001" target-x="508.8" target-y="268.8"/><path d="M 585.60 326.40 L 720.00 326.40 L 720.00 345.60 L 585.60 345.60 Z" fill="#d1d4d3" fill-rule="evenodd" group-id="1" id="矩形备份" node-id="9" stroke="none" target-height="19.200012" target-width="134.40002" target-x="585.6" target-y="326.4"/></g><path d="M 249.20 512.00 L 246.00 505.50 L 243.30 498.90 L 241.10 492.20 L 239.40 485.30 L 238.20 478.30 L 237.70 471.20 L 237.70 464.00 L 238.20 456.60 L 239.40 449.40 L 241.20 442.20 L 243.70 434.80 L 246.90 427.40 L 249.70 421.70 L 253.10 416.00 L 257.00 410.30 L 261.40 404.60 L 266.30 398.80 L 270.90 394.10 L 275.90 389.80 L 281.40 385.90 L 287.30 382.20 L 293.70 378.90 L 300.60 375.90 L 308.10 373.30 L 316.30 371.00 L 325.10 369.20 L 334.70 367.70 L 345.00 366.70 L 356.10 366.20 L 368.20 366.20 L 381.10 366.70 L 388.90 367.60 L 396.10 369.00 L 402.70 370.80 L 408.90 373.10 L 414.70 375.90 L 420.10 379.20 L 425.10 382.90 L 429.70 387.10 L 434.00 391.80 L 438.00 397.00 L 441.70 402.80 L 445.10 409.20 L 448.10 416.30 L 450.70 424.00 L 453.30 433.30 L 455.80 444.50 L 458.20 457.70 L 460.40 473.40 L 462.40 491.60 L 464.10 512.80 L 465.50 537.20 L 466.60 565.10 L 467.20 596.80 L 303.00 596.80 L 303.00 558.40 L 287.60 547.40 L 275.60 538.20 L 266.40 530.60 L 259.50 524.40 L 254.60 519.30 L 251.30 515.30 L 249.20 512.00 Z" fill="#ffffff" fill-rule="evenodd" id="路径-126" node-id="10" stroke="#000000" stroke-linecap="butt" stroke-width="3.2" target-height="230.59998" target-width="229.50002" target-x="237.7" target-y="366.2"/><g node-id="32"><path d="M 550.40 288.00 L 567.90 304.60 L 583.10 318.30 L 596.10 329.50 L 607.30 338.40 L 616.70 345.40 L 624.60 350.80 L 633.00 355.80 L 642.90 361.00 L 654.40 366.50 L 667.80 372.10 L 683.20 378.00 L 700.80 384.00 L 697.90 397.20 L 694.50 410.10 L 690.80 422.50 L 686.60 434.50 L 682.00 446.20 L 677.00 457.40 L 671.60 468.40 L 665.70 479.00 L 659.50 489.20 L 652.80 499.20 L 645.20 509.50 L 636.80 519.90 L 627.60 530.50 L 617.30 541.30 L 606.10 552.30 L 593.90 563.50 L 580.60 574.90 L 566.10 586.60 L 550.40 598.40 L 538.40 589.90 L 526.90 581.20 L 515.90 572.10 L 505.30 562.70 L 495.10 553.00 L 485.40 543.00 L 476.10 532.60 L 467.20 522.00 L 458.70 511.00 L 450.60 499.60 L 442.60 487.50 L 435.40 475.50 L 429.00 463.70 L 423.30 452.00 L 418.30 440.50 L 414.00 429.00 L 410.40 417.60 L 407.40 406.40 L 405.00 395.20 L 403.20 384.00 L 418.60 379.00 L 432.30 374.10 L 444.50 369.30 L 455.30 364.50 L 464.90 359.80 L 473.30 355.30 L 480.60 350.80 L 488.70 345.10 L 498.00 337.90 L 508.70 328.80 L 520.90 317.60 L 534.70 304.10 L 550.40 288.00 Z" fill="#3b58e6" fill-rule="evenodd" group-id="2" id="路径-125" node-id="12" stroke="none" target-height="310.40002" target-width="297.59998" target-x="403.2" target-y="288"/><g node-id="36"><path d="M 579.20 419.20 L 582.70 419.40 L 586.00 420.10 L 589.20 421.20 L 592.10 422.70 L 594.80 424.50 L 597.30 426.70 L 599.50 429.20 L 601.30 431.90 L 602.80 434.80 L 603.90 438.00 L 604.60 441.30 L 604.80 444.80 L 604.80 470.40 L 604.60 473.90 L 603.90 477.20 L 602.80 480.40 L 601.30 483.30 L 599.50 486.00 L 597.30 488.50 L 594.80 490.70 L 592.10 492.50 L 589.20 494.00 L 586.00 495.10 L 582.70 495.80 L 579.20 496.00 L 521.60 496.00 L 518.10 495.80 L 514.80 495.10 L 511.60 494.00 L 508.70 492.50 L 506.00 490.70 L 503.50 488.50 L 501.30 486.00 L 499.50 483.30 L 498.00 480.40 L 496.90 477.20 L 496.20 473.90 L 496.00 470.40 L 496.00 444.80 L 496.20 441.30 L 496.90 438.00 L 498.00 434.80 L 499.50 431.90 L 501.30 429.20 L 503.50 426.70 L 506.00 424.50 L 508.70 422.70 L 511.60 421.20 L 514.80 420.10 L 518.10 419.40 L 521.60 419.20 L 579.20 419.20 Z M 550.40 433.60 L 547.00 434.20 L 545.60 434.90 L 543.60 436.40 L 542.10 438.40 L 541.40 439.80 L 540.80 443.20 L 541.10 445.50 L 541.90 447.60 L 543.10 449.40 L 544.70 450.90 L 546.60 452.00 L 548.80 452.70 L 548.80 480.00 L 552.00 480.00 L 552.00 470.40 L 558.40 470.40 L 558.40 467.20 L 552.00 467.20 L 552.00 452.70 L 554.20 452.00 L 556.10 450.90 L 557.70 449.40 L 558.90 447.60 L 559.70 445.50 L 560.00 443.20 L 559.40 439.80 L 558.70 438.40 L 557.20 436.40 L 555.20 434.90 L 553.80 434.20 L 550.40 433.60 Z" fill="#ffffff" fill-rule="evenodd" group-id="2,6" id="形状结合" node-id="14" stroke="none" target-height="76.79999" target-width="108.79999" target-x="496" target-y="419.2"/><path d="M 550.40 384.00 L 553.90 384.20 L 557.20 384.90 L 560.40 386.00 L 563.30 387.50 L 566.00 389.30 L 568.50 391.50 L 570.70 394.00 L 572.50 396.70 L 574.00 399.60 L 575.10 402.80 L 575.80 406.10 L 576.00 422.40 L 569.60 422.40 L 569.60 409.60 L 569.30 406.10 L 568.40 402.90 L 567.00 399.90 L 565.10 397.20 L 562.80 394.90 L 560.10 393.00 L 557.10 391.60 L 553.90 390.70 L 550.40 390.40 L 546.90 390.70 L 543.70 391.60 L 540.70 393.00 L 538.00 394.90 L 535.70 397.20 L 533.80 399.90 L 532.40 402.90 L 531.50 406.10 L 531.20 409.60 L 531.20 422.40 L 524.80 422.40 L 525.00 406.10 L 525.70 402.80 L 526.80 399.60 L 528.30 396.70 L 530.10 394.00 L 532.30 391.50 L 534.80 389.30 L 537.50 387.50 L 540.40 386.00 L 543.60 384.90 L 546.90 384.20 L 550.40 384.00 Z" fill="#ffffff" fill-rule="nonzero" group-id="2,6" id="形状结合" node-id="15" stroke="none" target-height="38.399994" target-width="51.200012" target-x="524.8" target-y="384"/></g></g><path d="M 237.60 452.80 L 316.20 483.30 L 318.80 489.70 L 321.60 495.10 L 324.40 499.50 L 327.30 503.00 L 330.30 505.90 L 333.10 507.80 L 336.70 509.80 L 352.40 516.50 L 355.70 518.20 L 357.80 519.70 L 358.90 520.90 L 359.20 522.00 L 359.10 523.10 L 358.30 524.40 L 357.00 525.40 L 355.30 526.30 L 352.70 526.90 L 349.20 527.20 L 344.50 527.10 L 338.30 526.40 L 344.50 528.70 L 349.10 530.90 L 352.40 533.00 L 354.70 535.00 L 356.10 536.90 L 356.90 538.70 L 357.20 540.50 L 356.90 541.90 L 356.30 542.80 L 355.20 543.50 L 353.50 543.70 L 350.80 543.50 L 346.80 542.50 L 341.10 540.40 L 333.10 536.80 L 340.60 540.50 L 345.80 543.60 L 349.10 546.10 L 351.10 548.30 L 352.10 550.00 L 352.40 551.50 L 352.10 552.30 L 351.60 552.90 L 348.50 553.20 L 342.70 551.90 L 333.20 548.60 L 326.40 545.80 L 337.60 553.10 L 342.40 557.00 L 345.40 560.50 L 345.70 561.50 L 345.60 562.30 L 345.10 562.90 L 344.10 563.00 L 341.10 562.40 L 334.10 559.90 L 320.40 554.10 L 328.00 558.20 L 333.20 561.60 L 336.50 564.50 L 338.60 566.80 L 339.60 568.80 L 339.90 570.40 L 339.60 571.90 L 338.70 573.30 L 337.00 574.80 L 335.70 575.40 L 331.80 575.70 L 328.90 575.30 L 321.10 572.70 L 316.10 570.50 L 308.70 566.60 L 300.40 561.60 L 292.10 556.10 L 283.70 550.00 L 275.50 543.40 L 267.80 536.70 L 262.80 532.00 L 254.50 523.10 L 250.40 517.80 L 246.80 512.20 L 243.80 506.20 L 241.30 499.90 L 239.30 493.20 L 237.80 486.10 L 236.80 478.60 L 236.50 470.60 L 236.70 462.00 L 237.60 452.80 Z" fill="#ffffff" fill-rule="evenodd" id="路径-127" node-id="16" stroke="#000000" stroke-linecap="butt" stroke-width="3.2" target-height="122.900024" target-width="122.70001" target-x="236.5" target-y="452.8"/><path d="M 341.70 451.20 L 329.90 462.40 L 322.70 470.80 L 318.10 478.00 L 316.20 483.30" fill="none" id="路径-128" node-id="17" stroke="#000000" stroke-linecap="butt" stroke-width="3.2" target-height="32.099976" target-width="25.5" target-x="316.2" target-y="451.2"/><path d="M 376.30 341.10 L 463.00 323.20 L 446.50 298.90 L 442.20 293.90 L 438.00 289.70 L 434.60 286.90 L 431.00 284.60 L 427.40 282.80 L 423.70 281.40 L 419.80 280.50 L 415.70 280.00 L 411.30 279.90 L 406.60 280.30 L 402.30 281.20 L 398.20 282.40 L 394.20 284.00 L 390.50 286.00 L 387.00 288.40 L 383.80 291.20 L 380.80 294.30 L 378.20 297.80 L 376.00 301.60 L 374.20 305.70 L 372.80 310.20 L 371.80 315.10 L 371.10 321.60 L 371.00 326.80 L 371.40 331.10 L 372.20 334.50 L 373.30 337.30 L 374.70 339.40 L 376.30 341.10 Z" fill="#000000" fill-rule="evenodd" id="路径-129" node-id="18" stroke="none" target-height="61.200012" target-width="92" target-x="371" target-y="279.9"/><path d="M 400.90 307.50 L 406.50 306.80 L 409.40 307.10 L 415.10 308.60 L 420.90 311.60 L 425.90 315.80 L 427.90 318.30 L 429.40 321.00 L 430.60 323.90 L 431.20 326.70 L 431.50 329.70 L 431.30 332.90 L 430.70 336.10 L 429.70 339.40 L 428.10 343.00 L 424.10 349.30 L 421.80 352.00 L 416.50 356.50 L 410.80 359.50 L 404.80 361.10 L 404.80 376.00 L 388.80 376.00 L 388.80 356.40 L 385.20 352.20 L 382.70 346.90 L 381.70 343.10 L 381.30 339.10 L 381.50 333.60 L 378.60 331.90 L 377.20 330.20 L 376.30 328.40 L 376.00 326.40 L 376.70 323.30 L 378.70 320.80 L 381.80 319.00 L 383.60 318.60 L 386.40 318.40 L 389.00 315.00 L 393.50 311.00 L 395.90 309.40 L 400.90 307.50 Z" fill="#ffffff" fill-rule="evenodd" id="形状结合" node-id="19" stroke="#000000" stroke-linecap="butt" stroke-width="3.2" target-height="69.20001" target-width="55.5" target-x="376" target-y="306.8"/><g node-id="33"><path d="M 822.10 546.10 L 808.50 546.10 L 811.40 542.50 L 813.90 538.80 L 815.90 535.10 L 817.60 531.10 L 819.90 523.60 L 820.90 518.00 L 821.30 513.10 L 821.40 505.30 L 821.20 504.30 L 820.10 502.70 L 818.20 502.00 L 816.20 502.40 L 815.30 503.00 L 802.70 515.40 L 802.20 516.60 L 802.70 517.80 L 803.30 518.20 L 804.60 518.20 L 805.20 517.80 L 818.00 505.50 L 817.80 513.40 L 817.30 518.40 L 816.20 524.00 L 813.60 531.60 L 811.80 535.50 L 809.60 539.20 L 806.80 542.70 L 803.50 546.10 L 794.70 546.10 L 795.10 545.10 L 799.30 540.60 L 804.40 534.20 L 806.90 530.50 L 809.40 525.80 L 809.00 524.60 L 808.40 524.20 L 807.80 524.00 L 806.50 524.40 L 802.30 531.20 L 798.10 536.70 L 798.90 532.70 L 799.60 524.60 L 799.30 518.60 L 798.40 512.40 L 797.00 506.20 L 793.60 494.50 L 788.70 482.00 L 787.50 480.50 L 785.60 480.00 L 784.60 480.10 L 783.00 481.20 L 782.50 482.00 L 777.60 494.50 L 774.20 506.20 L 772.80 512.40 L 771.90 518.60 L 771.60 524.60 L 772.30 532.70 L 773.10 536.70 L 768.90 531.20 L 764.70 524.40 L 763.40 524.00 L 762.20 524.60 L 761.90 525.20 L 762.00 526.50 L 766.80 534.20 L 771.90 540.60 L 776.10 545.10 L 776.50 546.10 L 767.70 546.10 L 764.40 542.70 L 761.60 539.20 L 759.40 535.50 L 757.60 531.60 L 755.00 524.00 L 753.90 518.40 L 753.40 513.40 L 753.20 505.50 L 766.00 517.80 L 766.80 518.30 L 767.70 518.30 L 768.50 517.80 L 768.90 517.00 L 768.90 516.10 L 768.50 515.40 L 755.90 503.00 L 755.00 502.40 L 753.00 502.00 L 751.10 502.70 L 750.00 504.30 L 749.80 505.30 L 749.80 513.10 L 750.30 518.00 L 752.30 527.30 L 755.30 535.10 L 757.30 538.80 L 759.80 542.50 L 762.70 546.10 L 749.10 546.10 L 747.30 546.40 L 745.70 547.00 L 744.40 548.10 L 743.30 549.40 L 742.70 551.00 L 742.40 552.80 L 742.70 554.60 L 743.30 556.20 L 744.40 557.50 L 745.70 558.60 L 747.30 559.20 L 750.40 559.50 L 758.20 592.80 L 759.70 595.70 L 762.20 597.70 L 765.30 598.40 L 805.90 598.40 L 807.50 598.20 L 810.40 596.80 L 812.40 594.40 L 813.00 592.80 L 820.80 559.50 L 823.90 559.20 L 825.50 558.60 L 826.80 557.50 L 827.90 556.20 L 828.50 554.60 L 828.80 552.80 L 828.50 551.00 L 827.90 549.40 L 826.80 548.10 L 825.50 547.00 L 823.90 546.40 L 822.10 546.10 Z" fill="#282828" fill-rule="nonzero" group-id="3" id="路径" node-id="21" stroke="none" target-height="118.400024" target-width="86.39996" target-x="742.4" target-y="480"/><path d="M 785.60 483.50 L 788.60 491.00 L 792.10 501.20 L 794.90 512.90 L 795.80 518.90 L 796.10 524.60 L 795.90 529.20 L 794.40 537.00 L 792.60 542.20 L 790.80 546.10 L 787.30 546.10 L 787.30 512.40 L 786.80 511.20 L 785.60 510.70 L 784.90 510.80 L 784.00 511.70 L 783.90 512.40 L 783.90 546.10 L 780.40 546.10 L 778.60 542.20 L 776.80 537.00 L 775.30 529.20 L 775.10 524.60 L 775.40 518.90 L 776.30 512.90 L 777.60 506.90 L 780.90 495.70 L 785.60 483.50 Z" fill="#ffffff" fill-rule="nonzero" group-id="3" id="路径" node-id="22" stroke="none" target-height="62.599976" target-width="21" target-x="775.1" target-y="483.5"/><path d="M 822.10 556.00 L 767.60 556.00 L 767.00 556.20 L 766.10 557.10 L 766.10 558.40 L 767.00 559.30 L 767.60 559.50 L 817.20 559.50 L 809.60 592.00 L 809.10 593.20 L 808.20 594.10 L 807.10 594.70 L 805.90 594.90 L 765.30 594.90 L 764.10 594.70 L 763.00 594.10 L 762.10 593.20 L 761.60 592.00 L 754.00 559.50 L 760.10 559.30 L 761.00 558.40 L 761.00 557.10 L 760.10 556.20 L 759.50 556.00 L 749.10 556.00 L 747.80 555.80 L 746.80 555.10 L 746.10 554.10 L 745.90 552.80 L 746.10 551.50 L 746.80 550.50 L 747.80 549.80 L 749.10 549.60 L 822.10 549.60 L 823.30 549.80 L 824.40 550.50 L 825.10 551.50 L 825.30 552.80 L 825.10 554.10 L 824.40 555.10 L 823.30 555.80 L 822.10 556.00 Z" fill="#ffffff" fill-rule="nonzero" group-id="3" id="路径" node-id="23" stroke="none" target-height="45.30005" target-width="79.39996" target-x="745.9" target-y="549.6"/></g><path d="M 409.80 332.80 L 406.40 342.40 L 400.00 341.40" fill="none" id="路径-130" node-id="24" stroke="#000000" stroke-linecap="butt" stroke-width="3.2" target-height="9.600006" target-width="9.799988" target-x="400" target-y="332.8"/><path d="M 345.60 227.20 L 346.80 227.40 L 347.90 228.10 L 348.60 229.20 L 348.80 230.40 L 348.80 249.60 L 348.60 250.80 L 347.90 251.90 L 346.80 252.60 L 345.60 252.80 L 344.40 252.60 L 343.30 251.90 L 342.60 250.80 L 342.40 249.60 L 342.40 230.40 L 342.60 229.20 L 343.30 228.10 L 344.40 227.40 L 345.60 227.20 Z" fill="#3b58e6" fill-rule="evenodd" id="矩形" node-id="25" stroke="none" target-height="25.600006" target-width="6.399994" target-x="342.4" target-y="227.2"/><g node-id="34"><path d="M 422.40 232.10 L 423.30 232.90 L 423.90 234.10 L 424.00 235.30 L 423.60 236.50 L 414.00 253.10 L 413.10 254.10 L 412.00 254.60 L 410.80 254.70 L 409.60 254.30 L 408.70 253.50 L 408.10 252.30 L 408.00 251.10 L 408.40 249.90 L 418.00 233.30 L 418.90 232.30 L 420.00 231.80 L 421.20 231.70 L 422.40 232.10 Z" fill="#3b58e6" fill-rule="evenodd" group-id="4" id="矩形备份-2" node-id="26" stroke="none" target-height="23" target-width="16" target-x="408" target-y="231.7"/></g><path d="M 294.40 254.50 L 293.50 255.30 L 292.90 256.50 L 292.80 257.70 L 293.20 258.90 L 302.80 275.50 L 303.70 276.50 L 304.80 277.00 L 306.00 277.10 L 307.20 276.70 L 308.10 275.90 L 308.70 274.70 L 308.80 273.50 L 308.40 272.30 L 298.80 255.70 L 297.90 254.70 L 296.80 254.20 L 295.60 254.10 L 294.40 254.50 Z" fill="#3b58e6" fill-rule="evenodd" group-id="5" id="矩形备份-3" node-id="27" stroke="none" target-height="23" target-width="16" target-x="292.8" target-y="254.1"/></svg>